<?xml version="1.0" encoding="UTF-8"?>
<!DOCTYPE svg PUBLIC "-//W3C//DTD SVG 1.1//EN" "http://www.w3.org/Graphics/SVG/1.1/DTD/svg11.dtd">
<!-- Creator: CorelDRAW X7 -->
<svg xmlns="http://www.w3.org/2000/svg" xml:space="preserve" version="1.1" style="shape-rendering:geometricPrecision; text-rendering:geometricPrecision; image-rendering:optimizeQuality; fill-rule:evenodd; clip-rule:evenodd"
viewBox="0 0 14173 3277"
 xmlns:xlink="http://www.w3.org/1999/xlink">
 <defs>
  <style type="text/css">
   <![CDATA[
    .fil2 {fill:#E31E24}
    .fil1 {fill:#393185}
    .fil3 {fill:#E31E24;fill-rule:nonzero}
    .fil0 {fill:#393185;fill-rule:nonzero}
   ]]>
  </style>
 </defs>
 <g id="Слой_x0020_1">
  <metadata id="CorelCorpID_0Corel-Layer"/>
  <g id="_329168040">
   <path class="fil0" d="M4185 237c0,62 -21,115 -65,159 -43,44 -96,66 -160,66 -63,0 -116,-22 -159,-66 -43,-44 -64,-97 -64,-158 0,-60 22,-111 66,-154 44,-44 97,-65 158,-65 62,0 115,21 159,64 43,42 65,94 65,154zm-54 -1c0,-45 -16,-85 -50,-118 -34,-34 -74,-51 -121,-51 -46,0 -86,17 -119,52 -34,34 -50,74 -50,119 0,47 16,88 48,122 33,35 74,53 123,53 49,0 90,-18 122,-53 32,-34 47,-75 47,-124zm314 -163l-91 0 0 380 -52 0 0 -380 -91 0 0 -46 234 0 0 46zm348 -46l-189 207 191 219 -65 0 -185 -216 0 216 -52 0 0 -426 52 0 0 208 183 -208 65 0zm300 123c0,42 -15,74 -44,96 -26,20 -61,30 -105,30l-60 0 0 177 -52 0 0 -426 112 0c45,0 80,9 106,28 29,21 43,53 43,95zm-53 3l0 0c0,-54 -33,-80 -98,-80l-58 0 0 158 56 0c66,0 100,-26 100,-78zm449 300l-52 0 0 -426 52 0 0 426zm-340 0l0 -426 51 0 0 173 49 0c46,0 82,9 108,29 30,22 45,55 45,98 0,43 -15,75 -45,97 -26,19 -62,29 -108,29l-100 0zm51 -206l0 160 49 0c66,0 100,-27 100,-80 0,-54 -33,-80 -100,-80l-49 0zm571 -174l-91 0 0 380 -52 0 0 -380 -91 0 0 -46 234 0 0 46zm474 164c0,62 -21,115 -64,159 -44,44 -97,66 -160,66 -64,0 -117,-22 -160,-66 -43,-44 -64,-97 -64,-158 0,-60 22,-111 66,-154 44,-44 97,-65 158,-65 62,0 115,21 159,64 44,42 65,94 65,154zm-53 -1c0,-45 -17,-85 -51,-118 -33,-34 -74,-51 -120,-51 -47,0 -86,17 -120,52 -33,34 -50,74 -50,119 0,47 16,88 48,122 33,35 74,53 123,53 49,0 90,-18 122,-53 32,-34 48,-75 48,-124zm338 217l-226 0 0 -426 226 0 0 46 -174 0 0 140 164 0 0 46 -164 0 0 147 174 0 0 47zm576 0l-55 0 -51 -131 -176 0 -51 131 -55 0 170 -426 48 0 170 426zm-125 -178l-68 -177 -2 1 -69 176 139 0zm455 -248l-189 207 191 219 -65 0 -185 -216 0 216 -52 0 0 -426 52 0 0 208 183 -208 65 0zm366 505l-48 0 0 -79 -278 0 0 -426 51 0 0 379 184 0 0 -379 51 0 0 379 40 0 0 126zm380 -79l-52 0 0 -345 -232 345 -51 0 0 -426 52 0 0 344 231 -344 52 0 0 426zm507 -216c0,62 -21,115 -64,159 -44,44 -97,66 -160,66 -64,0 -117,-22 -160,-66 -43,-44 -64,-97 -64,-158 0,-60 22,-111 66,-154 44,-44 97,-65 158,-65 62,0 115,21 159,64 44,42 65,94 65,154zm-54 -1c0,-45 -16,-85 -50,-118 -33,-34 -74,-51 -120,-51 -47,0 -86,17 -120,52 -33,34 -50,74 -50,119 0,47 16,88 48,122 33,35 74,53 123,53 49,0 90,-18 122,-53 32,-34 47,-75 47,-124zm413 217l-52 0 0 -193 -196 0 0 193 -52 0 0 -426 52 0 0 185 196 0 0 -185 52 0 0 426zm306 0l-226 0 0 -426 226 0 0 46 -175 0 0 140 164 0 0 46 -164 0 0 147 175 0 0 47zm336 -303c0,42 -15,74 -44,96 -26,20 -61,30 -105,30l-60 0 0 177 -52 0 0 -426 112 0c45,0 80,9 106,28 29,21 43,53 43,95zm-54 3l0 0c0,-54 -32,-80 -97,-80l-58 0 0 158 55 0c67,0 100,-26 100,-78zm409 300l-52 0 0 -193 -196 0 0 193 -52 0 0 -426 52 0 0 185 196 0 0 -185 52 0 0 426zm507 -216c0,62 -22,115 -65,159 -43,44 -96,66 -160,66 -63,0 -116,-22 -159,-66 -43,-44 -65,-97 -65,-158 0,-60 22,-111 67,-154 44,-44 97,-65 158,-65 62,0 114,21 158,64 44,42 66,94 66,154zm-54 -1c0,-45 -17,-85 -50,-118 -34,-34 -74,-51 -121,-51 -46,0 -86,17 -119,52 -34,34 -51,74 -51,119 0,47 16,88 49,122 33,35 74,53 122,53 50,0 90,-18 123,-53 31,-34 47,-75 47,-124zm339 217l-226 0 0 -426 226 0 0 46 -175 0 0 140 164 0 0 46 -164 0 0 147 175 0 0 47zm666 -216c0,62 -22,115 -65,159 -43,44 -97,66 -160,66 -63,0 -116,-22 -159,-66 -43,-44 -65,-97 -65,-158 0,-60 22,-111 66,-154 45,-44 97,-65 158,-65 62,0 115,21 159,64 44,42 66,94 66,154zm-54 -1c0,-45 -17,-85 -51,-118 -33,-34 -73,-51 -120,-51 -46,0 -86,17 -120,52 -33,34 -50,74 -50,119 0,47 16,88 48,122 34,35 74,53 123,53 49,0 90,-18 122,-53 32,-34 48,-75 48,-124zm376 90c0,43 -15,75 -45,97 -27,20 -63,30 -108,30l-111 0 0 -426 236 0 0 46 -184 0 0 126 58 0c46,0 83,9 109,29 30,22 45,54 45,98zm-54 0c0,-54 -33,-81 -99,-81l-59 0 0 162 58 0c67,0 100,-27 100,-81zm608 206l-48 0 0 -79 -446 0 0 -426 52 0 0 379 150 0 0 -379 51 0 0 379 150 0 0 -379 51 0 0 379 40 0 0 126zm271 -79l-226 0 0 -426 226 0 0 46 -175 0 0 140 164 0 0 46 -164 0 0 147 175 0 0 47zm470 -105c-19,36 -45,64 -79,84 -34,19 -72,29 -115,29 -63,0 -116,-22 -159,-65 -42,-44 -63,-96 -63,-158 0,-60 22,-111 65,-154 44,-44 96,-65 157,-65 91,0 155,39 194,117l-62 0c-33,-44 -78,-67 -133,-67 -46,0 -86,17 -118,51 -33,33 -50,73 -50,118 0,46 16,87 47,121 34,35 74,53 120,53 57,0 101,-21 133,-64l63 0zm261 -275l-91 0 0 380 -52 0 0 -380 -91 0 0 -46 234 0 0 46zm304 253c0,85 -53,127 -157,127l-99 0 0 -426 87 0c96,0 144,38 144,114 0,40 -18,68 -55,83 53,16 80,50 80,102zm-77 -187c0,-44 -30,-66 -89,-66l-40 0 0 137 37 0c61,0 92,-23 92,-71zm24 193c0,-30 -9,-51 -26,-64 -15,-10 -38,-16 -70,-16l-57 0 0 155 52 0c67,0 101,-25 101,-75zm541 -95c0,62 -22,115 -65,159 -43,44 -97,66 -160,66 -63,0 -116,-22 -159,-66 -43,-44 -65,-97 -65,-158 0,-60 22,-111 67,-154 44,-44 96,-65 157,-65 62,0 115,21 159,64 44,42 66,94 66,154zm-54 -1c0,-45 -17,-85 -50,-118 -34,-34 -74,-51 -121,-51 -46,0 -86,17 -120,52 -33,34 -50,74 -50,119 0,47 16,88 49,122 33,35 74,53 122,53 49,0 90,-18 123,-53 31,-34 47,-75 47,-124z"/>
   <path class="fil0" d="M3904 2948l-65 0 0 272 -38 0 0 -272 -65 0 0 -33 168 0 0 33zm419 117c0,45 -14,82 -44,113 -30,32 -67,48 -113,48 -41,0 -76,-14 -105,-43 -29,-27 -45,-61 -49,-100l-36 0 0 137 -37 0 0 -305 37 0 0 133 36 0c4,-38 21,-71 51,-98 30,-28 64,-42 104,-42 44,0 81,16 111,46 30,31 45,68 45,111zm-38 0l0 0c0,-33 -12,-61 -34,-85 -23,-24 -51,-36 -85,-36 -32,0 -60,12 -83,37 -23,25 -35,53 -35,85 0,33 11,62 34,86 22,26 51,39 85,39 35,0 64,-13 86,-39 21,-24 32,-53 32,-87zm358 155l0 -240c0,-1 0,-5 1,-11 0,-4 1,-9 1,-17l-2 0 -106 268 -29 0 -107 -268 -1 0c0,3 1,8 1,14 1,6 1,11 1,14l0 240 -36 0 0 -305 56 0 100 251 99 -251 58 0 0 305 -36 0zm257 0l-163 0 0 -305 163 0 0 32 -126 0 0 101 118 0 0 33 -118 0 0 105 126 0 0 34zm270 0l-37 0 0 -139 -142 0 0 139 -37 0 0 -305 37 0 0 132 142 0 0 -132 37 0 0 305zm343 -76c-13,27 -33,47 -57,61 -24,14 -52,21 -83,21 -46,0 -84,-16 -114,-47 -31,-31 -46,-69 -46,-113 0,-43 15,-79 47,-111 31,-31 69,-46 113,-46 65,0 112,28 140,84l-44 0c-25,-32 -57,-48 -97,-48 -33,0 -61,12 -85,36 -24,24 -36,52 -36,85 0,33 12,62 34,86 24,26 53,39 87,39 41,0 73,-16 95,-47l46 0zm260 -229l-137 148 138 157 -47 0 -133 -155 0 155 -37 0 0 -305 37 0 0 149 132 -149 47 0zm269 305l-37 0 0 -247 -167 247 -37 0 0 -305 37 0 0 246 167 -246 37 0 0 305zm245 -384c0,18 -6,32 -19,43 -13,12 -28,17 -46,17 -18,0 -34,-5 -46,-17 -13,-11 -20,-25 -20,-43l30 0c0,11 3,19 10,26 7,6 15,10 26,10 10,0 19,-4 25,-10 6,-7 10,-15 10,-26l30 0zm54 384l-37 0 0 -246 -167 246 -37 0 0 -305 37 0 0 247 167 -247 37 0 0 305zm365 -217c0,30 -11,53 -32,69 -19,14 -44,21 -76,21l-43 0 0 127 -37 0 0 -305 81 0c32,0 57,7 76,20 21,15 31,38 31,68zm-39 2l0 0c0,-38 -23,-58 -70,-58l-42 0 0 114 40 0c48,0 72,-19 72,-56zm322 215l-39 0 -37 -94 -128 0 -36 94 -40 0 123 -305 34 0 123 305zm-90 -128l-49 -126 -1 0 -51 126 101 0zm397 52c-14,27 -33,47 -57,61 -24,14 -52,21 -83,21 -46,0 -84,-16 -115,-47 -30,-31 -45,-69 -45,-113 0,-43 15,-79 47,-111 31,-31 69,-46 113,-46 65,0 112,28 140,84l-44 0c-25,-32 -57,-48 -97,-48 -33,0 -62,12 -85,36 -24,24 -36,52 -36,85 0,33 11,62 34,86 24,26 53,39 87,39 41,0 72,-16 95,-47l46 0zm217 76l-37 0 0 -139c-25,9 -49,13 -70,13 -26,0 -45,-7 -59,-21 -13,-14 -20,-34 -20,-59l0 -99 37 0 0 96c0,33 16,50 47,50 22,0 43,-5 65,-15l0 -131 37 0 0 305zm222 0l-163 0 0 -305 163 0 0 32 -126 0 0 101 118 0 0 33 -118 0 0 105 126 0 0 34zm199 -272l-66 0 0 272 -37 0 0 -272 -66 0 0 -33 169 0 0 33zm250 272l-37 0 0 -139 -142 0 0 139 -37 0 0 -305 37 0 0 132 142 0 0 -132 37 0 0 305zm367 -155c0,45 -16,83 -47,114 -31,32 -70,47 -116,47 -45,0 -84,-16 -115,-47 -31,-32 -46,-69 -46,-113 0,-43 16,-80 48,-111 32,-31 70,-46 114,-46 44,0 82,15 114,46 32,30 48,67 48,110zm-39 0c0,-33 -13,-61 -37,-85 -24,-24 -53,-36 -87,-36 -33,0 -62,12 -86,36 -24,25 -36,53 -36,86 0,34 11,63 35,87 24,26 53,38 88,38 36,0 65,-12 88,-38 23,-24 35,-53 35,-88zm176 56l-104 0 0 -32 104 0 0 32zm290 99l-38 0 0 -247 -167 247 -37 0 0 -305 38 0 0 246 166 -246 38 0 0 305zm274 0l-37 0 0 -139 -142 0 0 139 -37 0 0 -305 37 0 0 132 142 0 0 -132 37 0 0 305zm349 -161c0,51 -24,83 -71,97 -14,4 -36,6 -65,6l0 58 -37 0 0 -58c-29,0 -50,-2 -65,-6 -47,-14 -70,-46 -70,-96 0,-52 25,-83 74,-95 15,-4 35,-5 61,-5l0 -45 37 0 0 45c27,0 47,1 61,5 50,12 75,43 75,94zm-38 3l0 0c0,-47 -28,-70 -83,-70l-16 0 0 138 16 0c55,0 83,-23 83,-68zm-133 68l0 -138 -16 0c-56,0 -83,23 -83,70 0,45 27,68 82,68l17 0zm520 -65c0,45 -15,83 -47,114 -31,32 -69,47 -115,47 -46,0 -84,-16 -115,-47 -31,-32 -47,-69 -47,-113 0,-43 16,-80 48,-111 32,-31 70,-46 114,-46 45,0 83,15 115,46 31,30 47,67 47,110zm-39 0c0,-33 -12,-61 -36,-85 -24,-24 -53,-36 -87,-36 -33,0 -62,12 -86,36 -25,25 -37,53 -37,86 0,34 12,63 35,87 24,26 54,38 89,38 35,0 65,-12 88,-38 23,-24 34,-53 34,-88zm270 -62c0,30 -10,53 -31,69 -19,14 -45,21 -76,21l-44 0 0 127 -37 0 0 -305 81 0c32,0 57,7 76,20 21,15 31,38 31,68zm-38 2l0 0c0,-38 -24,-58 -71,-58l-42 0 0 114 41 0c48,0 72,-19 72,-56zm355 215l0 -240c0,-1 0,-5 1,-11 0,-4 1,-9 1,-17l-2 0 -106 268 -29 0 -107 -268 -1 0c0,3 1,8 1,14 1,6 1,11 1,14l0 240 -36 0 0 -305 56 0 100 251 99 -251 58 0 0 305 -36 0zm337 0l-40 0 -37 -94 -127 0 -36 94 -40 0 123 -305 34 0 123 305zm-90 -128l-49 -126 -1 0 -51 126 101 0zm348 185l-35 0 0 -57 -201 0 0 -305 37 0 0 271 133 0 0 -271 37 0 0 271 29 0 0 91zm274 -57l-38 0 0 -247 -167 247 -37 0 0 -305 38 0 0 246 166 -246 38 0 0 305zm366 -155c0,45 -15,83 -47,114 -31,32 -69,47 -115,47 -46,0 -84,-16 -115,-47 -31,-32 -47,-69 -47,-113 0,-43 16,-80 48,-111 32,-31 70,-46 114,-46 45,0 83,15 115,46 31,30 47,67 47,110zm-39 0c0,-33 -12,-61 -36,-85 -24,-24 -53,-36 -87,-36 -33,0 -62,12 -86,36 -25,25 -37,53 -37,86 0,34 12,63 35,87 24,26 54,38 89,38 35,0 65,-12 88,-38 23,-24 34,-53 34,-88zm298 155l-37 0 0 -139 -142 0 0 139 -37 0 0 -305 37 0 0 132 142 0 0 -132 37 0 0 305zm274 0l-38 0 0 -139 -141 0 0 139 -38 0 0 -305 38 0 0 132 141 0 0 -132 38 0 0 305zm303 0l-37 0 0 -305 37 0 0 305zm-245 0l0 -305 37 0 0 124 35 0c33,0 59,6 78,20 22,16 33,40 33,71 0,30 -11,53 -33,69 -19,14 -45,21 -78,21l-72 0zm37 -148l0 115 35 0c48,0 72,-19 72,-57 0,-39 -24,-58 -72,-58l-35 0zm454 -236c0,18 -7,32 -20,43 -12,12 -28,17 -46,17 -18,0 -33,-5 -46,-17 -13,-11 -19,-25 -19,-43l30 0c0,11 3,19 9,26 7,6 16,10 26,10 11,0 19,-4 26,-10 6,-7 9,-15 9,-26l31 0zm54 384l-38 0 0 -246 -166 246 -38 0 0 -305 38 0 0 247 167 -247 37 0 0 305zm413 57l-35 0 0 -57 -201 0 0 -305 37 0 0 271 133 0 0 -271 37 0 0 271 29 0 0 91zm195 -57l-163 0 0 -305 163 0 0 32 -126 0 0 101 118 0 0 33 -118 0 0 105 126 0 0 34zm270 0l-37 0 0 -139 -142 0 0 139 -37 0 0 -305 37 0 0 132 142 0 0 -132 37 0 0 305zm203 -272l-66 0 0 272 -37 0 0 -272 -66 0 0 -33 169 0 0 33zm223 55c0,30 -11,53 -32,69 -19,14 -44,21 -76,21l-43 0 0 127 -37 0 0 -305 81 0c32,0 57,7 76,20 20,15 31,38 31,68zm-39 2l0 0c0,-38 -23,-58 -70,-58l-42 0 0 114 40 0c48,0 72,-19 72,-56z"/>
   <g>
    <path class="fil1" d="M0 1263l0 1957 3174 0 5 -1957c-27,0 -55,0 -82,0 -129,2035 -2899,2023 -3012,0l-85 0z"/>
    <path class="fil2" d="M1625 0c-12,0 -24,0 -35,0 -704,0 -1274,570 -1274,1273 0,11 0,22 0,32l1309 -1305z"/>
    <polygon class="fil2" points="1781,14 331,1467 321,1380 1705,5 "/>
    <polygon class="fil2" points="1926,45 361,1613 343,1534 1858,28 "/>
    <polygon class="fil2" points="2056,87 405,1742 379,1670 1992,67 "/>
    <polygon class="fil2" points="2172,142 458,1858 427,1792 2115,113 "/>
    <polygon class="fil2" points="2280,202 520,1964 483,1904 2225,171 "/>
    <polygon class="fil2" points="2380,276 593,2066 551,2011 2332,239 "/>
    <polygon class="fil2" points="2475,358 676,2160 629,2109 2431,318 "/>
    <polygon class="fil2" points="2556,444 761,2241 710,2195 2515,399 "/>
    <polygon class="fil2" points="2630,540 857,2315 802,2273 2595,491 "/>
    <polygon class="fil2" points="2699,645 964,2383 903,2346 2667,592 "/>
    <polygon class="fil2" points="2756,761 1078,2441 1014,2408 2727,701 "/>
    <polygon class="fil2" points="2802,885 1203,2487 1129,2463 2780,822 "/>
    <polygon class="fil2" points="2837,1019 1337,2522 1258,2504 2821,950 "/>
    <polygon class="fil2" points="2858,1169 1486,2543 1399,2533 2851,1091 "/>
    <path class="fil2" d="M2863 1273c0,704 -570,1274 -1273,1274l1273 -1274z"/>
   </g>
   <path class="fil0" d="M4590 2420l0 -1573c0,-22 -5,-39 -16,-51 -10,-13 -23,-19 -38,-19 -25,0 -45,15 -59,45l-612 1323 0 -1298c0,-20 -7,-35 -19,-45 -12,-10 -27,-15 -43,-15 -17,0 -31,5 -42,16 -12,11 -18,25 -18,44l0 1573c0,20 6,36 16,49 11,13 24,20 39,20 24,0 44,-15 59,-44l612 -1323 0 1298c0,18 6,32 19,43 12,11 26,16 43,16 17,0 31,-5 42,-15 12,-10 17,-24 17,-44zm967 -895l-605 0 0 -666c0,-20 -6,-35 -18,-46 -13,-11 -27,-16 -44,-16 -16,0 -30,6 -42,17 -11,12 -17,27 -17,45l0 1573c0,18 6,33 17,43 12,11 26,17 42,17 42,0 62,-20 62,-60l0 -785 605 0 0 785c0,18 6,33 18,43 13,11 27,17 44,17 16,0 30,-5 42,-15 11,-10 17,-25 17,-45l0 -1573c0,-20 -6,-35 -18,-46 -13,-11 -27,-16 -41,-16 -42,0 -62,21 -62,62l0 666zm1087 -364l119 0c101,0 187,36 258,107 71,71 106,156 106,255l0 121c0,103 -35,189 -106,260 -73,70 -159,104 -258,104l-119 0 0 -847zm-121 847l-122 0c-100,0 -186,-35 -257,-106 -71,-71 -107,-157 -107,-258l0 -121c0,-101 36,-186 107,-255 71,-71 157,-107 257,-107l122 0 0 847zm0 122l0 302c0,18 6,33 18,43 13,11 26,17 41,17 42,0 62,-20 62,-60l0 -302 119 0c136,0 250,-47 345,-141 94,-96 141,-211 141,-345l0 -121c0,-136 -47,-250 -141,-342 -95,-94 -209,-141 -345,-141l-119 0 0 -181c0,-20 -6,-35 -18,-46 -13,-11 -27,-16 -44,-16 -16,0 -30,6 -42,17 -11,12 -17,27 -17,45l0 181 -122 0c-133,0 -248,47 -344,141 -94,94 -141,208 -141,342l0 121c0,136 47,251 141,345 96,94 211,141 344,141l122 0zm1816 0l0 -969c0,-102 -36,-188 -107,-257 -71,-71 -157,-107 -257,-107l-122 0c-100,0 -186,36 -257,107 -70,72 -104,158 -104,257l0 969c0,101 35,187 106,258 69,69 155,104 255,104l122 0c100,0 186,-36 257,-107 71,-71 107,-156 107,-255zm-122 0c0,69 -23,127 -69,172 -46,45 -104,68 -173,68l-122 0c-33,0 -64,-6 -93,-18 -29,-13 -54,-30 -76,-52 -23,-23 -40,-48 -52,-77 -13,-29 -19,-60 -19,-93l0 -969c0,-35 6,-66 19,-95 12,-29 29,-55 52,-77 22,-22 47,-40 76,-52 29,-12 60,-19 93,-19l122 0c34,0 66,7 95,20 29,13 55,31 77,53 22,23 40,48 52,77 12,29 18,60 18,93l0 969z"/>
   <path class="fil3" d="M9536 2376l-587 0 0 -1468c0,-20 -6,-34 -18,-45 -12,-10 -26,-15 -42,-15 -16,0 -30,5 -41,16 -11,12 -17,26 -17,44l0 1526c0,38 20,58 58,58l764 0 0 175c0,19 6,34 17,45 11,10 25,15 41,15 39,0 58,-20 58,-60l0 -233c0,-39 -19,-58 -58,-58l-58 0 0 -1468c0,-20 -6,-34 -18,-45 -12,-10 -25,-15 -39,-15 -40,0 -60,20 -60,60l0 1468zm656 -704l294 0c19,0 34,-6 44,-18 11,-12 16,-26 16,-42 0,-16 -5,-30 -16,-41 -10,-11 -25,-17 -44,-17l-294 0 0 -589 529 0c20,0 34,-5 44,-17 9,-11 14,-24 14,-40 0,-40 -19,-60 -58,-60l-586 0c-40,0 -60,20 -60,60l0 1526c0,38 20,58 60,58l586 0c20,0 34,-6 44,-18 9,-12 14,-26 14,-40 0,-40 -19,-60 -58,-60l-529 0 0 -702zm1597 -118l-586 0 0 -646c0,-20 -6,-34 -18,-45 -12,-10 -26,-15 -42,-15 -16,0 -30,5 -41,16 -11,12 -17,26 -17,44l0 1526c0,18 6,32 17,42 11,10 25,16 41,16 40,0 60,-20 60,-58l0 -762 586 0 0 762c0,18 6,32 18,42 12,10 26,16 42,16 16,0 30,-5 41,-15 11,-9 17,-24 17,-43l0 -1526c0,-20 -6,-34 -18,-45 -12,-10 -25,-15 -40,-15 -40,0 -60,20 -60,60l0 646zm772 -589l0 1469c0,18 7,32 19,42 12,10 26,16 42,16 16,0 29,-5 40,-15 12,-9 17,-24 17,-43l0 -1469 296 0c18,0 32,-5 42,-17 10,-11 16,-24 16,-40 0,-40 -20,-60 -58,-60l-707 0c-17,0 -31,6 -42,18 -10,12 -15,26 -15,42 0,16 5,29 15,40 11,12 25,17 42,17l293 0zm893 705l0 -705 351 0c34,0 64,7 92,20 28,12 53,30 75,51 22,22 38,47 50,75 12,28 18,58 18,90l0 235c0,32 -6,62 -18,91 -12,28 -28,52 -50,74 -22,22 -47,39 -75,51 -28,12 -58,18 -92,18l-351 0zm0 117l351 0c96,0 179,-33 250,-101 69,-69 103,-152 103,-250l0 -235c0,-100 -34,-183 -103,-250 -69,-69 -152,-103 -250,-103l-411 0c-39,0 -58,20 -58,60l0 1526c0,18 6,32 17,42 11,10 25,16 41,16 40,0 60,-20 60,-58l0 -647z"/>
  </g>
 </g>
</svg>
