<svg width="600" height="1454" viewBox="0 0 600 1454" fill="none" xmlns="http://www.w3.org/2000/svg">
<g clip-path="url(#clip0_1_51)">
<path opacity="0.65" d="M390.5 1434C495.158 1434 580 1349.16 580 1244.5C580 1139.84 495.158 1055 390.5 1055C285.842 1055 201 1139.84 201 1244.5C201 1349.16 285.842 1434 390.5 1434Z" fill="white"/>
<path opacity="0.65" d="M390.5 1453C505.651 1453 599 1359.65 599 1244.5C599 1129.35 505.651 1036 390.5 1036C275.349 1036 182 1129.35 182 1244.5C182 1359.65 275.349 1453 390.5 1453Z" stroke="white" stroke-width="2" stroke-miterlimit="10"/>
<path opacity="0.65" d="M209.5 399C314.158 399 399 314.158 399 209.5C399 104.842 314.158 20 209.5 20C104.842 20 20 104.842 20 209.5C20 314.158 104.842 399 209.5 399Z" fill="white"/>
<path d="M209.5 418C324.651 418 418 324.651 418 209.5C418 94.3486 324.651 1 209.5 1C94.3486 1 1 94.3486 1 209.5C1 324.651 94.3486 418 209.5 418Z" stroke="#393185" stroke-width="2" stroke-miterlimit="10"/>
<path opacity="0.65" d="M232 727.97C292.735 727.97 341.97 678.735 341.97 618C341.97 557.265 292.735 508.03 232 508.03C171.265 508.03 122.03 557.265 122.03 618C122.03 678.735 171.265 727.97 232 727.97Z" fill="white"/>
<path opacity="0.65" d="M232 739C298.826 739 353 684.826 353 618C353 551.174 298.826 497 232 497C165.174 497 111 551.174 111 618C111 684.826 165.174 739 232 739Z" stroke="white" stroke-width="2" stroke-miterlimit="10"/>
<path opacity="0.65" d="M404 930.89C437.629 930.89 464.89 903.629 464.89 870C464.89 836.371 437.629 809.11 404 809.11C370.371 809.11 343.11 836.371 343.11 870C343.11 903.629 370.371 930.89 404 930.89Z" fill="white"/>
<path d="M404 937C441.003 937 471 907.003 471 870C471 832.997 441.003 803 404 803C366.997 803 337 832.997 337 870C337 907.003 366.997 937 404 937Z" stroke="#393185" stroke-miterlimit="10"/>
</g>
<defs>
<clipPath id="clip0_1_51">
<rect width="600" height="1454" fill="white"/>
</clipPath>
</defs>
</svg>
