<svg width="531" height="531" viewBox="0 0 531 531" fill="none" xmlns="http://www.w3.org/2000/svg">
<g clip-path="url(#clip0_1_9)">
<path d="M265.5 513.23C403.405 513.23 515.2 401.435 515.2 263.53C515.2 125.624 403.405 13.83 265.5 13.83C127.594 13.83 15.8 125.624 15.8 263.53C15.8 401.435 127.594 513.23 265.5 513.23Z" fill="white"/>
<path d="M265.5 530C411.579 530 530 411.579 530 265.5C530 119.421 411.579 1 265.5 1C119.421 1 1 119.421 1 265.5C1 411.579 119.421 530 265.5 530Z" stroke="white" stroke-width="2" stroke-miterlimit="10"/>
<path d="M173.76 221.67C173.76 223.63 173.1 225.31 171.7 226.7C170.34 228.09 168.66 228.79 166.64 228.79C164.65 228.79 162.97 228.09 161.61 226.7C160.25 225.31 159.59 223.63 159.59 221.7C159.59 219.8 160.29 218.19 161.68 216.83C163.07 215.44 164.75 214.77 166.68 214.77C168.64 214.77 170.32 215.43 171.71 216.79C173.06 218.13 173.76 219.78 173.76 221.67ZM172.05 221.64C172.05 220.22 171.54 218.95 170.47 217.91C169.39 216.83 168.13 216.3 166.64 216.3C165.19 216.3 163.92 216.84 162.88 217.94C161.8 219.02 161.3 220.28 161.3 221.7C161.3 223.19 161.81 224.48 162.82 225.56C163.86 226.67 165.16 227.24 166.71 227.24C168.26 227.24 169.56 226.67 170.57 225.56C171.57 224.49 172.05 223.19 172.05 221.64ZM181.98 216.49H179.1V228.51H177.46V216.49H174.58V215.04H181.98V216.49ZM192.98 215.03L187 221.58L193.04 228.51H190.98L185.13 221.68V228.51H183.49V215.04H185.13V221.62L190.92 215.04H192.98V215.03ZM202.47 218.92C202.47 220.25 202 221.26 201.08 221.96C200.26 222.59 199.15 222.91 197.76 222.91H195.86V228.51H194.22V215.04H197.76C199.18 215.04 200.29 215.32 201.11 215.93C202.03 216.58 202.47 217.59 202.47 218.92ZM200.79 219.02C200.79 217.31 199.75 216.49 197.69 216.49H195.86V221.49H197.63C199.72 221.48 200.79 220.66 200.79 219.02ZM214.99 228.5H213.35V215.03H214.99V228.5ZM204.24 228.5V215.03H205.85V220.5H207.4C208.85 220.5 209.99 220.78 210.82 221.42C211.77 222.12 212.24 223.16 212.24 224.52C212.24 225.88 211.77 226.89 210.82 227.59C210 228.19 208.86 228.51 207.4 228.51H204.24V228.5ZM205.85 221.99V227.05H207.4C209.49 227.05 210.56 226.2 210.56 224.52C210.56 222.81 209.52 221.99 207.4 221.99H205.85ZM223.91 216.49H221.03V228.51H219.39V216.49H216.51V215.04H223.91V216.49ZM238.9 221.67C238.9 223.63 238.24 225.31 236.88 226.7C235.49 228.09 233.81 228.79 231.82 228.79C229.8 228.79 228.12 228.09 226.76 226.7C225.4 225.31 224.74 223.63 224.74 221.7C224.74 219.8 225.44 218.19 226.83 216.83C228.22 215.44 229.9 214.77 231.83 214.77C233.79 214.77 235.47 215.43 236.86 216.79C238.24 218.13 238.9 219.78 238.9 221.67ZM237.22 221.64C237.22 220.22 236.68 218.95 235.61 217.91C234.57 216.83 233.27 216.3 231.82 216.3C230.33 216.3 229.1 216.84 228.03 217.94C226.99 219.02 226.45 220.28 226.45 221.7C226.45 223.19 226.96 224.48 227.97 225.56C229.01 226.67 230.31 227.24 231.86 227.24C233.41 227.24 234.71 226.67 235.72 225.56C236.72 224.49 237.22 223.19 237.22 221.64ZM247.91 228.5H240.76V215.03H247.91V216.48H242.41V220.91H247.6V222.36H242.41V227.01H247.91V228.5ZM266.13 228.5H264.39L262.78 224.36H257.21L255.6 228.5H253.86L259.24 215.03H260.76L266.13 228.5ZM262.17 222.88L260.02 217.28L259.96 217.31L257.78 222.88H262.17ZM276.56 215.03L270.58 221.58L276.62 228.51H274.56L268.71 221.68V228.51H267.07V215.04H268.71V221.62L274.5 215.04H276.56V215.03ZM288.14 231H286.62V228.5H277.83V215.03H279.44V227.02H285.26V215.03H286.87V227.02H288.13V231H288.14ZM300.15 228.5H298.51V217.59L291.17 228.5H289.56V215.03H291.2V225.91L298.5 215.03H300.14V228.5H300.15ZM316.19 221.67C316.19 223.63 315.53 225.31 314.17 226.7C312.78 228.09 311.1 228.79 309.11 228.79C307.09 228.79 305.41 228.09 304.05 226.7C302.69 225.31 302.03 223.63 302.03 221.7C302.03 219.8 302.73 218.19 304.12 216.83C305.51 215.44 307.19 214.77 309.12 214.77C311.08 214.77 312.76 215.43 314.15 216.79C315.52 218.13 316.19 219.78 316.19 221.67ZM314.48 221.64C314.48 220.22 313.97 218.95 312.9 217.91C311.86 216.83 310.56 216.3 309.11 216.3C307.62 216.3 306.39 216.84 305.32 217.94C304.28 219.02 303.74 220.28 303.74 221.7C303.74 223.19 304.25 224.48 305.26 225.56C306.3 226.67 307.6 227.24 309.15 227.24C310.7 227.24 312 226.67 313.01 225.56C314 224.49 314.48 223.19 314.48 221.64ZM327.54 228.5H325.9V222.4H319.7V228.5H318.06V215.03H319.7V220.88H325.9V215.03H327.54V228.5ZM337.22 228.5H330.07V215.03H337.22V216.48H331.69V220.91H336.88V222.36H331.69V227.01H337.22V228.5ZM347.84 218.92C347.84 220.25 347.37 221.26 346.45 221.96C345.63 222.59 344.52 222.91 343.13 222.91H341.23V228.51H339.59V215.04H343.13C344.55 215.04 345.66 215.32 346.48 215.93C347.4 216.58 347.84 217.59 347.84 218.92ZM346.13 219.02C346.13 217.31 345.12 216.49 343.06 216.49H341.23V221.49H342.97C345.09 221.48 346.13 220.66 346.13 219.02ZM359.07 228.5H357.43V222.4H351.23V228.5H349.59V215.03H351.23V220.88H357.43V215.03H359.07V228.5ZM375.1 221.67C375.1 223.63 374.4 225.31 373.04 226.7C371.68 228.09 370 228.79 367.98 228.79C365.99 228.79 364.31 228.09 362.95 226.7C361.59 225.31 360.89 223.63 360.89 221.7C360.89 219.8 361.59 218.19 363.01 216.83C364.4 215.44 366.08 214.77 368.01 214.77C369.97 214.77 371.62 215.43 373.01 216.79C374.4 218.13 375.1 219.78 375.1 221.67ZM373.39 221.64C373.39 220.22 372.85 218.95 371.81 217.91C370.73 216.83 369.47 216.3 367.98 216.3C366.53 216.3 365.26 216.84 364.22 217.94C363.14 219.02 362.61 220.28 362.61 221.7C362.61 223.19 363.12 224.48 364.16 225.56C365.2 226.67 366.5 227.24 368.02 227.24C369.6 227.24 370.87 226.67 371.91 225.56C372.89 224.49 373.39 223.19 373.39 221.64ZM384.11 228.5H376.96V215.03H384.11V216.48H378.58V220.91H383.77V222.36H378.58V227.01H384.11V228.5ZM405.17 221.67C405.17 223.63 404.47 225.31 403.11 226.7C401.75 228.09 400.04 228.79 398.05 228.79C396.06 228.79 394.38 228.09 393.02 226.7C391.66 225.31 390.96 223.63 390.96 221.7C390.96 219.8 391.66 218.19 393.05 216.83C394.47 215.44 396.12 214.77 398.05 214.77C400.01 214.77 401.69 215.43 403.08 216.79C404.48 218.13 405.17 219.78 405.17 221.67ZM403.47 221.64C403.47 220.22 402.93 218.95 401.86 217.91C400.82 216.83 399.55 216.3 398.07 216.3C396.62 216.3 395.35 216.84 394.28 217.94C393.24 219.02 392.7 220.28 392.7 221.7C392.7 223.19 393.21 224.48 394.22 225.56C395.3 226.67 396.56 227.24 398.11 227.24C399.66 227.24 400.96 226.67 401.97 225.56C402.96 224.49 403.47 223.19 403.47 221.64ZM415.36 224.49C415.36 225.85 414.89 226.86 413.94 227.56C413.09 228.19 411.95 228.51 410.52 228.51H407.01V215.04H414.47V216.49H408.65V220.47H410.48C411.93 220.47 413.1 220.75 413.93 221.39C414.88 222.08 415.36 223.1 415.36 224.49ZM413.65 224.49C413.65 222.78 412.61 221.93 410.52 221.93H408.65V227.05H410.48C412.6 227.05 413.65 226.2 413.65 224.49ZM432.87 231H431.35V228.5H417.25V215.03H418.89V227.02H423.63V215.03H425.24V227.02H430V215.03H431.61V227.02H432.87V231ZM441.44 228.5H434.29V215.03H441.44V216.48H435.91V220.91H441.1V222.36H435.91V227.01H441.44V228.5ZM456.31 225.18C455.71 226.32 454.89 227.2 453.81 227.84C452.73 228.44 451.53 228.76 450.17 228.76C448.18 228.76 446.5 228.06 445.14 226.7C443.81 225.31 443.15 223.66 443.15 221.7C443.15 219.8 443.85 218.19 445.21 216.83C446.6 215.44 448.25 214.77 450.17 214.77C453.05 214.77 455.07 216 456.3 218.47H454.34C453.3 217.08 451.87 216.35 450.13 216.35C448.68 216.35 447.41 216.89 446.4 217.96C445.36 219 444.82 220.27 444.82 221.69C444.82 223.14 445.33 224.44 446.31 225.52C447.39 226.63 448.65 227.2 450.1 227.2C451.9 227.2 453.29 226.54 454.31 225.18H456.31ZM464.56 216.49H461.68V228.51H460.04V216.49H457.16V215.04H464.56V216.49ZM474.17 224.49C474.17 227.18 472.49 228.51 469.21 228.51H466.08V215.04H468.83C471.87 215.04 473.38 216.24 473.38 218.65C473.38 219.91 472.81 220.8 471.64 221.27C473.32 221.77 474.17 222.84 474.17 224.49ZM471.74 218.57C471.74 217.18 470.79 216.48 468.93 216.48H467.67V220.81H468.84C470.76 220.82 471.74 220.09 471.74 218.57ZM472.5 224.68C472.5 223.73 472.22 223.07 471.68 222.66C471.21 222.34 470.48 222.15 469.47 222.15H467.67V227.05H469.31C471.42 227.05 472.5 226.26 472.5 224.68ZM489.61 221.67C489.61 223.63 488.91 225.31 487.55 226.7C486.19 228.09 484.48 228.79 482.49 228.79C480.5 228.79 478.82 228.09 477.46 226.7C476.1 225.31 475.4 223.63 475.4 221.7C475.4 219.8 476.1 218.19 477.52 216.83C478.91 215.44 480.56 214.77 482.48 214.77C484.44 214.77 486.12 215.43 487.51 216.79C488.91 218.13 489.61 219.78 489.61 221.67ZM487.9 221.64C487.9 220.22 487.36 218.95 486.32 217.91C485.24 216.83 483.98 216.3 482.49 216.3C481.04 216.3 479.77 216.84 478.7 217.94C477.66 219.02 477.12 220.28 477.12 221.7C477.12 223.19 477.63 224.48 478.67 225.56C479.71 226.67 481.01 227.24 482.53 227.24C484.08 227.24 485.38 226.67 486.42 225.56C487.39 224.49 487.9 223.19 487.9 221.64Z" fill="#393185"/>
<path d="M164.87 307.4H162.81V316H161.61V307.4H159.55V306.36H164.86V307.4H164.87ZM178.12 311.1C178.12 312.52 177.68 313.69 176.73 314.67C175.78 315.68 174.61 316.19 173.16 316.19C171.86 316.19 170.76 315.75 169.84 314.83C168.92 313.98 168.42 312.9 168.29 311.67H167.15V316H165.98V306.35H167.15V310.56H168.29C168.42 309.36 168.95 308.31 169.9 307.46C170.85 306.57 171.92 306.13 173.19 306.13C174.58 306.13 175.75 306.64 176.7 307.58C177.65 308.57 178.12 309.74 178.12 311.1ZM176.92 311.1C176.92 310.06 176.54 309.17 175.84 308.41C175.11 307.65 174.23 307.27 173.15 307.27C172.14 307.27 171.25 307.65 170.53 308.44C169.8 309.23 169.42 310.12 169.42 311.13C169.42 312.17 169.77 313.09 170.5 313.85C171.2 314.67 172.11 315.08 173.19 315.08C174.3 315.08 175.21 314.67 175.91 313.85C176.57 313.1 176.92 312.18 176.92 311.1ZM188.24 316.01V308.42C188.24 308.39 188.24 308.26 188.27 308.07C188.27 307.94 188.3 307.79 188.3 307.53H188.24L184.89 316H183.97L180.59 307.53H180.56C180.56 307.62 180.59 307.78 180.59 307.97C180.62 308.16 180.62 308.32 180.62 308.41V316H179.48V306.35H181.25L184.41 314.29L187.54 306.35H189.37V316H188.24V316.01ZM196.37 316.01H191.22V306.36H196.37V307.37H192.39V310.56H196.12V311.6H192.39V314.92H196.37V316.01ZM204.9 316.01H203.73V311.61H199.24V316.01H198.07V306.36H199.24V310.53H203.73V306.36H204.9V316.01ZM215.75 313.6C215.34 314.45 214.71 315.09 213.95 315.53C213.19 315.97 212.31 316.19 211.33 316.19C209.88 316.19 208.67 315.68 207.72 314.7C206.74 313.72 206.27 312.52 206.27 311.13C206.27 309.77 206.74 308.63 207.76 307.62C208.74 306.64 209.94 306.17 211.33 306.17C213.39 306.17 214.87 307.06 215.76 308.83H214.37C213.58 307.82 212.57 307.31 211.3 307.31C210.26 307.31 209.37 307.69 208.61 308.45C207.85 309.21 207.47 310.09 207.47 311.14C207.47 312.18 207.85 313.1 208.55 313.86C209.31 314.68 210.23 315.09 211.3 315.09C212.6 315.09 213.61 314.58 214.3 313.6H215.75ZM223.97 306.36L219.64 311.04L224 316H222.51L218.3 311.1V316H217.13V306.35H218.3V311.06L222.47 306.35H223.97V306.36ZM232.48 316.01H231.31V308.2L226.03 316.01H224.86V306.36H226.03V314.14L231.31 306.36H232.48V316.01ZM240.23 303.86C240.23 304.43 240.04 304.87 239.63 305.22C239.22 305.6 238.74 305.76 238.18 305.76C237.62 305.76 237.1 305.6 236.73 305.22C236.32 304.87 236.1 304.43 236.1 303.86H237.05C237.05 304.21 237.14 304.46 237.37 304.68C237.59 304.87 237.84 305 238.19 305C238.51 305 238.79 304.87 238.98 304.68C239.17 304.46 239.3 304.21 239.3 303.86H240.23ZM241.93 316.01H240.76V308.23L235.48 316.01H234.31V306.36H235.48V314.17L240.76 306.36H241.93V316.01ZM253.48 309.14C253.48 310.09 253.13 310.82 252.47 311.32C251.87 311.76 251.08 311.98 250.07 311.98H248.71V316H247.54V306.35H250.1C251.11 306.35 251.9 306.57 252.5 306.98C253.16 307.47 253.48 308.19 253.48 309.14ZM252.24 309.21C252.24 308.01 251.51 307.38 250.03 307.38H248.7V310.99H249.96C251.49 310.98 252.24 310.38 252.24 309.21ZM262.43 316.01H261.2L260.03 313.04H255.98L254.84 316.01H253.58L257.47 306.36H258.55L262.43 316.01ZM259.58 311.96L258.03 307.98H258L256.39 311.96H259.58ZM272.14 313.6C271.7 314.45 271.1 315.09 270.34 315.53C269.58 315.97 268.7 316.19 267.72 316.19C266.27 316.19 265.06 315.68 264.08 314.7C263.13 313.72 262.66 312.52 262.66 311.13C262.66 309.77 263.13 308.63 264.15 307.62C265.13 306.64 266.33 306.17 267.72 306.17C269.78 306.17 271.26 307.06 272.15 308.83H270.76C269.97 307.82 268.96 307.31 267.69 307.31C266.65 307.31 265.73 307.69 265 308.45C264.24 309.21 263.86 310.09 263.86 311.14C263.86 312.18 264.21 313.1 264.94 313.86C265.7 314.68 266.62 315.09 267.69 315.09C268.99 315.09 269.97 314.58 270.69 313.6H272.14ZM279 316.01H277.83V311.61C277.04 311.89 276.28 312.02 275.62 312.02C274.8 312.02 274.2 311.8 273.75 311.36C273.34 310.92 273.12 310.28 273.12 309.49V306.36H274.29V309.4C274.29 310.44 274.8 310.98 275.78 310.98C276.48 310.98 277.14 310.82 277.84 310.51V306.37H279V316.01ZM286.02 316.01H280.87V306.36H286.02V307.37H282.04V310.56H285.77V311.6H282.04V314.92H286.02V316.01ZM292.31 307.4H290.22V316H289.05V307.4H286.96V306.36H292.3V307.4H292.31ZM300.22 316.01H299.05V311.61H294.56V316.01H293.39V306.36H294.56V310.53H299.05V306.36H300.22V316.01ZM311.82 311.1C311.82 312.52 311.31 313.72 310.33 314.71C309.35 315.72 308.12 316.2 306.66 316.2C305.24 316.2 304 315.69 303.02 314.71C302.04 313.7 301.57 312.53 301.57 311.14C301.57 309.78 302.08 308.61 303.09 307.63C304.1 306.65 305.3 306.18 306.7 306.18C308.09 306.18 309.29 306.65 310.31 307.63C311.32 308.57 311.82 309.74 311.82 311.1ZM310.59 311.1C310.59 310.06 310.18 309.17 309.42 308.41C308.66 307.65 307.74 307.27 306.67 307.27C305.63 307.27 304.71 307.65 303.95 308.41C303.19 309.2 302.81 310.09 302.81 311.13C302.81 312.21 303.16 313.12 303.92 313.88C304.68 314.7 305.6 315.08 306.7 315.08C307.84 315.08 308.76 314.7 309.48 313.88C310.21 313.13 310.59 312.21 310.59 311.1ZM316.15 312.87H312.86V311.86H316.15V312.87ZM325.32 316.01H324.12V308.2L318.84 316.01H317.67V306.36H318.87V314.14L324.12 306.36H325.32V316.01ZM333.99 316.01H332.82V311.61H328.33V316.01H327.16V306.36H328.33V310.53H332.82V306.36H333.99V316.01ZM345.03 310.91C345.03 312.52 344.27 313.53 342.78 313.98C342.34 314.11 341.64 314.17 340.72 314.17V316H339.55V314.17C338.63 314.17 337.97 314.11 337.49 313.98C336 313.54 335.28 312.53 335.28 310.94C335.28 309.3 336.07 308.32 337.62 307.94C338.09 307.81 338.73 307.78 339.55 307.78V306.36H340.72V307.78C341.57 307.78 342.21 307.81 342.65 307.94C344.24 308.32 345.03 309.3 345.03 310.91ZM343.82 311.01C343.82 309.52 342.93 308.8 341.2 308.8H340.69V313.16H341.2C342.94 313.16 343.82 312.43 343.82 311.01ZM339.62 313.16V308.8H339.11C337.34 308.8 336.49 309.53 336.49 311.01C336.49 312.43 337.34 313.16 339.08 313.16H339.62ZM356.06 311.1C356.06 312.52 355.59 313.72 354.57 314.71C353.59 315.72 352.39 316.2 350.93 316.2C349.47 316.2 348.27 315.69 347.29 314.71C346.31 313.7 345.8 312.53 345.8 311.14C345.8 309.78 346.31 308.61 347.32 307.63C348.33 306.65 349.53 306.18 350.93 306.18C352.35 306.18 353.55 306.65 354.57 307.63C355.56 308.57 356.06 309.74 356.06 311.1ZM354.83 311.1C354.83 310.06 354.45 309.17 353.69 308.41C352.93 307.65 352.01 307.27 350.94 307.27C349.9 307.27 348.98 307.65 348.22 308.41C347.43 309.2 347.05 310.09 347.05 311.13C347.05 312.21 347.43 313.12 348.16 313.88C348.92 314.7 349.87 315.08 350.97 315.08C352.07 315.08 353.03 314.7 353.75 313.88C354.48 313.13 354.83 312.21 354.83 311.1ZM363.37 309.14C363.37 310.09 363.05 310.82 362.39 311.32C361.79 311.76 360.97 311.98 359.99 311.98H358.6V316H357.43V306.35H359.99C361 306.35 361.79 306.57 362.39 306.98C363.05 307.47 363.37 308.19 363.37 309.14ZM362.17 309.21C362.17 308.01 361.41 307.38 359.92 307.38H358.59V310.99H359.89C361.41 310.98 362.17 310.38 362.17 309.21ZM373.39 316.01V308.42C373.39 308.39 373.39 308.26 373.42 308.07C373.42 307.94 373.45 307.79 373.45 307.53H373.39L370.04 316H369.12L365.74 307.53H365.71C365.71 307.62 365.74 307.78 365.74 307.97C365.77 308.16 365.77 308.32 365.77 308.41V316H364.63V306.35H366.4L369.56 314.29L372.69 306.35H374.52V316H373.39V316.01ZM384.05 316.01H382.79L381.62 313.04H377.6L376.46 316.01H375.2L379.09 306.36H380.17L384.05 316.01ZM381.2 311.96L379.65 307.98H379.62L378.01 311.96H381.2ZM392.21 317.81H391.1V316.01H384.74V306.36H385.91V314.93H390.12V306.36H391.29V314.93H392.21V317.81ZM400.87 316.01H399.67V308.2L394.39 316.01H393.22V306.36H394.42V314.14L399.67 306.36H400.87V316.01ZM412.45 311.1C412.45 312.52 411.98 313.72 410.96 314.71C409.98 315.72 408.78 316.2 407.32 316.2C405.87 316.2 404.66 315.69 403.68 314.71C402.7 313.7 402.19 312.53 402.19 311.14C402.19 309.78 402.7 308.61 403.71 307.63C404.72 306.65 405.92 306.18 407.32 306.18C408.74 306.18 409.94 306.65 410.96 307.63C411.94 308.57 412.45 309.74 412.45 311.1ZM411.21 311.1C411.21 310.06 410.83 309.17 410.07 308.41C409.31 307.65 408.39 307.27 407.32 307.27C406.28 307.27 405.36 307.65 404.6 308.41C403.81 309.2 403.43 310.09 403.43 311.13C403.43 312.21 403.81 313.12 404.54 313.88C405.3 314.7 406.25 315.08 407.35 315.08C408.45 315.08 409.41 314.7 410.13 313.88C410.87 313.13 411.21 312.21 411.21 311.1ZM420.64 316.01H419.47V311.61H414.98V316.01H413.81V306.36H414.98V310.53H419.47V306.36H420.64V316.01ZM429.3 316.01H428.1V311.61H423.64V316.01H422.44V306.36H423.64V310.53H428.1V306.36H429.3V316.01ZM438.88 316.01H437.71V306.36H438.88V316.01ZM431.14 316.01V306.36H432.31V310.28H433.42C434.46 310.28 435.29 310.47 435.89 310.91C436.59 311.42 436.93 312.17 436.93 313.16C436.93 314.11 436.58 314.84 435.89 315.34C435.29 315.78 434.47 316 433.42 316H431.14V316.01ZM432.31 311.33V314.97H433.42C434.94 314.97 435.7 314.37 435.7 313.17C435.7 311.94 434.94 311.34 433.42 311.34H432.31V311.33ZM446.66 303.86C446.66 304.43 446.44 304.87 446.03 305.22C445.65 305.6 445.14 305.76 444.58 305.76C444.01 305.76 443.54 305.6 443.13 305.22C442.72 304.87 442.53 304.43 442.53 303.86H443.48C443.48 304.21 443.57 304.46 443.76 304.68C443.98 304.87 444.27 305 444.58 305C444.93 305 445.18 304.87 445.4 304.68C445.59 304.46 445.68 304.21 445.68 303.86H446.66ZM448.37 316.01H447.17V308.23L441.92 316.01H440.72V306.36H441.92V314.17L447.2 306.36H448.37V316.01ZM461.43 317.81H460.32V316.01H453.96V306.36H455.13V314.93H459.34V306.36H460.51V314.93H461.43V317.81ZM467.6 316.01H462.45V306.36H467.6V307.37H463.62V310.56H467.35V311.6H463.62V314.92H467.6V316.01ZM476.14 316.01H474.97V311.61H470.48V316.01H469.31V306.36H470.48V310.53H474.97V306.36H476.14V316.01ZM482.55 307.4H480.46V316H479.29V307.4H477.2V306.36H482.54V307.4H482.55ZM489.61 309.14C489.61 310.09 489.26 310.82 488.6 311.32C488 311.76 487.21 311.98 486.2 311.98H484.84V316H483.67V306.35H486.23C487.24 306.35 488.03 306.57 488.63 306.98C489.26 307.47 489.61 308.19 489.61 309.14ZM488.37 309.21C488.37 308.01 487.64 307.38 486.16 307.38H484.83V310.99H486.09C487.61 310.98 488.37 310.38 488.37 309.21Z" fill="#393185"/>
<path fill-rule="evenodd" clip-rule="evenodd" d="M41.41 254.12V316.01H141.78L141.94 254.12C141.09 254.12 140.2 254.12 139.35 254.12C135.27 318.47 47.67 318.09 44.1 254.12H41.41Z" fill="#393185"/>
<path fill-rule="evenodd" clip-rule="evenodd" d="M92.8 214.18C92.42 214.18 92.04 214.18 91.69 214.18C69.43 214.18 51.4 232.21 51.4 254.44C51.4 254.79 51.4 255.14 51.4 255.45L92.8 214.18Z" fill="#E31E24"/>
<path fill-rule="evenodd" clip-rule="evenodd" d="M97.73 214.62L51.88 260.57L51.56 257.82L95.33 214.34L97.73 214.62Z" fill="#E31E24"/>
<path fill-rule="evenodd" clip-rule="evenodd" d="M102.32 215.6L52.83 265.19L52.2599 262.69L100.17 215.06L102.32 215.6Z" fill="#E31E24"/>
<path fill-rule="evenodd" clip-rule="evenodd" d="M106.43 216.93L54.22 269.27L53.4 266.99L104.41 216.3L106.43 216.93Z" fill="#E31E24"/>
<path fill-rule="evenodd" clip-rule="evenodd" d="M110.1 218.67L55.9 272.93L54.92 270.85L108.3 217.75L110.1 218.67Z" fill="#E31E24"/>
<path fill-rule="evenodd" clip-rule="evenodd" d="M113.51 220.57L57.8599 276.29L56.6899 274.39L111.77 219.59L113.51 220.57Z" fill="#E31E24"/>
<path fill-rule="evenodd" clip-rule="evenodd" d="M116.68 222.91L60.17 279.51L58.84 277.77L115.16 221.74L116.68 222.91Z" fill="#E31E24"/>
<path fill-rule="evenodd" clip-rule="evenodd" d="M119.68 225.5L62.79 282.48L61.3 280.87L118.29 224.24L119.68 225.5Z" fill="#E31E24"/>
<path fill-rule="evenodd" clip-rule="evenodd" d="M122.24 228.22L65.48 285.05L63.87 283.59L120.95 226.8L122.24 228.22Z" fill="#E31E24"/>
<path fill-rule="evenodd" clip-rule="evenodd" d="M124.58 231.26L68.51 287.39L66.77 286.06L123.48 229.71L124.58 231.26Z" fill="#E31E24"/>
<path fill-rule="evenodd" clip-rule="evenodd" d="M126.76 234.58L71.9 289.54L69.97 288.37L125.75 232.9L126.76 234.58Z" fill="#E31E24"/>
<path fill-rule="evenodd" clip-rule="evenodd" d="M128.57 238.24L75.5 291.37L73.48 290.33L127.65 236.35L128.57 238.24Z" fill="#E31E24"/>
<path fill-rule="evenodd" clip-rule="evenodd" d="M130.02 242.17L79.46 292.83L77.12 292.07L129.33 240.17L130.02 242.17Z" fill="#E31E24"/>
<path fill-rule="evenodd" clip-rule="evenodd" d="M131.13 246.4L83.69 293.93L81.2 293.36L130.62 244.22L131.13 246.4Z" fill="#E31E24"/>
<path fill-rule="evenodd" clip-rule="evenodd" d="M131.79 251.15L88.41 294.6L85.65 294.28L131.57 248.68L131.79 251.15Z" fill="#E31E24"/>
<path fill-rule="evenodd" clip-rule="evenodd" d="M131.95 254.44C131.95 276.7 113.92 294.73 91.69 294.73L131.95 254.44Z" fill="#E31E24"/>
<path d="M186.56 290.71V240.97C186.56 240.27 186.4 239.74 186.05 239.36C185.73 238.95 185.32 238.76 184.85 238.76C184.06 238.76 183.43 239.23 182.98 240.18L163.63 282.02V240.97C163.63 240.34 163.41 239.86 163.03 239.55C162.65 239.23 162.18 239.08 161.67 239.08C161.13 239.08 160.69 239.24 160.34 239.59C159.96 239.94 159.77 240.38 159.77 240.98V290.72C159.77 291.35 159.96 291.86 160.28 292.27C160.63 292.68 161.04 292.9 161.51 292.9C162.27 292.9 162.9 292.43 163.38 291.51L182.73 249.67V290.72C182.73 291.29 182.92 291.73 183.33 292.08C183.71 292.43 184.15 292.59 184.69 292.59C185.23 292.59 185.67 292.43 186.02 292.12C186.4 291.78 186.56 291.34 186.56 290.71ZM217.14 262.4H198.01V241.34C198.01 240.71 197.82 240.23 197.44 239.89C197.03 239.54 196.59 239.38 196.05 239.38C195.54 239.38 195.1 239.57 194.72 239.92C194.37 240.3 194.18 240.77 194.18 241.34V291.08C194.18 291.65 194.37 292.12 194.72 292.44C195.1 292.79 195.54 292.98 196.05 292.98C197.38 292.98 198.01 292.35 198.01 291.08V266.26H217.14V291.08C217.14 291.65 217.33 292.12 217.71 292.44C218.12 292.79 218.56 292.98 219.1 292.98C219.61 292.98 220.05 292.82 220.43 292.51C220.78 292.19 220.97 291.72 220.97 291.09V241.35C220.97 240.72 220.78 240.24 220.4 239.9C219.99 239.55 219.55 239.39 219.1 239.39C217.77 239.39 217.14 240.05 217.14 241.35V262.4ZM251.52 250.89H255.28C258.47 250.89 261.19 252.03 263.44 254.27C265.69 256.51 266.79 259.2 266.79 262.33V266.16C266.79 269.42 265.68 272.14 263.44 274.38C261.13 276.59 258.41 277.67 255.28 277.67H251.52V250.89ZM247.69 277.68H243.83C240.67 277.68 237.95 276.57 235.7 274.33C233.45 272.09 232.32 269.37 232.32 266.17V262.34C232.32 259.15 233.46 256.46 235.7 254.28C237.95 252.03 240.66 250.9 243.83 250.9H247.69V277.68ZM247.69 281.54V291.09C247.69 291.66 247.88 292.13 248.26 292.45C248.67 292.8 249.08 292.99 249.56 292.99C250.89 292.99 251.52 292.36 251.52 291.09V281.54H255.28C259.58 281.54 263.19 280.05 266.19 277.08C269.16 274.04 270.65 270.41 270.65 266.17V262.34C270.65 258.04 269.16 254.43 266.19 251.52C263.19 248.55 259.58 247.06 255.28 247.06H251.52V241.34C251.52 240.71 251.33 240.23 250.95 239.89C250.54 239.54 250.1 239.38 249.56 239.38C249.05 239.38 248.61 239.57 248.23 239.92C247.88 240.3 247.69 240.77 247.69 241.34V247.06H243.83C239.62 247.06 235.99 248.55 232.95 251.52C229.98 254.49 228.49 258.1 228.49 262.34V266.17C228.49 270.47 229.98 274.11 232.95 277.08C235.99 280.05 239.62 281.54 243.83 281.54H247.69ZM305.12 281.54V250.9C305.12 247.67 303.98 244.95 301.74 242.77C299.49 240.52 296.78 239.39 293.61 239.39H289.75C286.59 239.39 283.87 240.53 281.62 242.77C279.41 245.05 278.33 247.77 278.33 250.9V281.54C278.33 284.73 279.44 287.45 281.68 289.7C283.86 291.88 286.58 292.99 289.74 292.99H293.6C296.76 292.99 299.48 291.85 301.73 289.61C303.98 287.37 305.12 284.67 305.12 281.54ZM301.26 281.54C301.26 283.72 300.53 285.56 299.08 286.98C297.63 288.4 295.79 289.13 293.61 289.13H289.75C288.71 289.13 287.73 288.94 286.81 288.56C285.89 288.15 285.1 287.61 284.41 286.92C283.68 286.19 283.15 285.4 282.77 284.49C282.36 283.57 282.17 282.59 282.17 281.55V250.91C282.17 249.8 282.36 248.82 282.77 247.91C283.15 246.99 283.69 246.17 284.41 245.48C285.11 244.78 285.9 244.22 286.81 243.84C287.73 243.46 288.71 243.24 289.75 243.24H293.61C294.69 243.24 295.7 243.46 296.61 243.87C297.53 244.28 298.35 244.85 299.04 245.55C299.74 246.28 300.3 247.07 300.68 247.98C301.06 248.89 301.25 249.88 301.25 250.92V281.54H301.26Z" fill="#393185"/>
<path d="M342.97 289.32H324.41V242.9C324.41 242.27 324.22 241.82 323.84 241.48C323.46 241.16 323.02 241.01 322.51 241.01C322 241.01 321.56 241.17 321.21 241.52C320.86 241.9 320.67 242.34 320.67 242.91V291.17C320.67 292.37 321.3 293 322.5 293H346.66V298.53C346.66 299.13 346.85 299.61 347.2 299.95C347.55 300.27 347.99 300.42 348.5 300.42C349.73 300.42 350.33 299.79 350.33 298.52V291.15C350.33 289.92 349.73 289.32 348.5 289.32H346.67V242.9C346.67 242.27 346.48 241.82 346.1 241.48C345.72 241.16 345.31 241.01 344.87 241.01C343.61 241.01 342.97 241.64 342.97 242.91V289.32ZM363.72 267.05H373.02C373.62 267.05 374.1 266.86 374.41 266.48C374.76 266.1 374.92 265.66 374.92 265.15C374.92 264.64 374.76 264.2 374.41 263.85C374.09 263.5 373.62 263.31 373.02 263.31H363.72V244.7H380.45C381.08 244.7 381.53 244.54 381.84 244.16C382.12 243.81 382.28 243.4 382.28 242.9C382.28 241.64 381.68 241 380.45 241H361.92C360.66 241 360.02 241.63 360.02 242.9V291.16C360.02 292.36 360.65 292.99 361.92 292.99H380.45C381.08 292.99 381.53 292.8 381.84 292.42C382.12 292.04 382.28 291.6 382.28 291.16C382.28 289.9 381.68 289.26 380.45 289.26H363.72V267.05ZM414.22 263.32H395.69V242.89C395.69 242.26 395.5 241.81 395.12 241.47C394.74 241.15 394.3 241 393.79 241C393.28 241 392.84 241.16 392.49 241.51C392.14 241.89 391.95 242.33 391.95 242.9V291.16C391.95 291.73 392.14 292.17 392.49 292.49C392.84 292.81 393.28 293 393.79 293C395.05 293 395.69 292.37 395.69 291.17V267.07H414.22V291.17C414.22 291.74 414.41 292.18 414.79 292.5C415.17 292.82 415.61 293.01 416.12 293.01C416.63 293.01 417.07 292.85 417.42 292.54C417.77 292.26 417.96 291.78 417.96 291.18V242.92C417.96 242.29 417.77 241.84 417.39 241.5C417.01 241.18 416.6 241.03 416.13 241.03C414.87 241.03 414.23 241.66 414.23 242.93V263.32H414.22ZM438.63 244.7V291.15C438.63 291.72 438.85 292.16 439.23 292.48C439.61 292.8 440.05 292.99 440.56 292.99C441.07 292.99 441.48 292.83 441.82 292.52C442.2 292.24 442.36 291.76 442.36 291.16V244.7H451.72C452.29 244.7 452.73 244.54 453.05 244.16C453.37 243.81 453.56 243.4 453.56 242.9C453.56 241.64 452.93 241 451.73 241H429.37C428.83 241 428.39 241.19 428.04 241.57C427.72 241.95 427.57 242.39 427.57 242.9C427.57 243.41 427.73 243.82 428.04 244.16C428.39 244.54 428.83 244.7 429.37 244.7H438.63ZM466.87 266.99V244.7H477.97C479.05 244.7 479.99 244.92 480.88 245.33C481.77 245.71 482.56 246.28 483.25 246.94C483.95 247.64 484.45 248.43 484.83 249.31C485.21 250.2 485.4 251.14 485.4 252.16V259.59C485.4 260.6 485.21 261.55 484.83 262.47C484.45 263.36 483.94 264.11 483.25 264.81C482.55 265.51 481.76 266.04 480.88 266.42C479.99 266.8 479.05 266.99 477.97 266.99H466.87ZM466.87 270.69H477.97C481.01 270.69 483.63 269.65 485.88 267.5C488.06 265.32 489.14 262.69 489.14 259.59V252.16C489.14 249 488.06 246.37 485.88 244.25C483.7 242.07 481.07 240.99 477.97 240.99H464.97C463.74 240.99 463.14 241.62 463.14 242.89V291.15C463.14 291.72 463.33 292.16 463.68 292.48C464.03 292.8 464.47 292.99 464.98 292.99C466.24 292.99 466.88 292.36 466.88 291.16V270.69H466.87Z" fill="#E31E24"/>
</g>
<defs>
<clipPath id="clip0_1_9">
<rect width="531" height="531" fill="white"/>
</clipPath>
</defs>
</svg>
