<svg width="55" height="55" viewBox="0 0 55 55" fill="none" xmlns="http://www.w3.org/2000/svg">
<path d="M55 26.8149C55 26.6192 54.8039 26.3256 54.6078 26.4235H53.9216H50.6863C50.5882 26.4235 50.5882 26.3256 50.4902 26.2278C50 14.0925 39.8039 4.40391 27.549 4.40391C14.8039 4.40391 4.41177 14.7776 4.41177 27.5C4.41177 40.2224 14.8039 50.5961 27.549 50.5961C38.5294 50.5961 48.0392 42.7669 50.1961 32.0996L50.2941 31.2189C50.2941 31.0231 50.098 30.8274 49.902 30.8274H37.6471C37.549 30.8274 37.451 30.7295 37.451 30.6317V24.5641C37.451 24.4662 37.549 24.3683 37.6471 24.3683H45.2941C45.4902 24.3683 45.6863 24.1726 45.6863 23.9769L45.5882 23.0961C43.5294 14.5819 36.0784 8.80783 27.549 8.80783C17.1569 8.80783 8.82353 17.1263 8.82353 27.5C8.82353 37.8737 17.2549 46.1922 27.549 46.1922C34.2157 46.1922 40.3922 42.5712 43.7255 36.895C43.8235 36.6993 44.0196 36.21 44.0196 36.1121V35.6228C44.0196 35.427 43.9216 35.3292 43.7255 35.3292H42.8431H42.7451H33.2353C33.1373 35.3292 33.0392 35.2313 33.0392 35.1335V20.1601C33.0392 20.0623 33.1373 19.9644 33.2353 19.9644H37.3529H37.549C37.7451 19.9644 37.8431 19.7687 37.8431 19.573C37.8431 19.573 37.8431 19.2794 37.7451 18.9858V18.8879C37.6471 18.6922 37.549 18.4964 37.451 18.3007C36.9608 17.3221 35.6863 15.952 32.8431 14.5819C31.1765 13.8968 29.3137 13.5053 27.451 13.5053C19.6078 13.5053 13.1373 19.8665 13.1373 27.7936C13.1373 35.427 19.1176 41.5925 26.6667 41.984C26.7647 41.984 28.1373 41.984 28.1373 41.984C28.4314 41.984 28.6275 41.7883 28.6275 41.5925V18.3007C28.6275 18.105 28.4314 17.9093 28.2353 17.9093C28.2353 17.9093 26.8627 17.9093 26.7647 17.9093C21.6667 18.3007 17.6471 22.6068 17.6471 27.6957C17.6471 32.7847 21.4706 36.9929 26.4706 37.4822V38.5587L26.4634 39.8171L25.5882 39.7331C19.8039 38.7544 15.4902 33.7633 15.4902 27.7936C15.4902 21.1388 20.9804 15.6584 27.6471 15.6584C30.098 15.6584 32.549 16.4413 34.6078 17.8114C34.6078 17.9093 34.6078 17.9093 34.5098 17.9093H31.4706C31.1765 17.9093 30.9804 18.105 30.9804 18.3007V37.1886C30.9804 37.3843 31.1765 37.5801 31.3726 37.5801H40.4902C40.5882 37.5801 40.6863 37.6779 40.6863 37.7758C40.6863 37.7758 40.5882 37.9715 40.2941 38.363C40.2941 38.363 40.2941 38.363 40.2941 38.4609C37.1569 42.1797 32.549 44.3327 27.6471 44.3327C18.5294 44.3327 11.0784 36.895 11.0784 27.7936C11.0784 18.6922 18.5294 11.2544 27.6471 11.2544C34.5098 11.2544 40.6863 15.5605 43.0392 21.8238V22.0196C43.0392 22.2153 42.8431 22.3132 42.6471 22.3132H35.6863C35.4902 22.3132 35.2941 22.5089 35.2941 22.7046V32.6868C35.2941 32.8826 35.4902 33.1762 35.6863 33.1762H47.549C47.6471 33.274 47.7451 33.3719 47.7451 33.4698C45.1961 42.3754 36.9608 48.7367 27.549 48.7367C15.9804 48.7367 6.56863 39.3416 6.56863 27.7936C6.56863 16.2456 15.9804 6.55694 27.549 6.55694C38.7255 6.55694 47.8431 15.2669 48.5294 26.2278C48.5294 26.3256 48.4314 26.3256 48.3333 26.4235H40.6863C40.4902 26.4235 40.2941 26.6192 40.2941 26.8149V28.0872C40.2941 28.3808 40.4902 28.5765 40.6863 28.5765H52.6471C52.8431 28.5765 52.9412 28.7722 52.9412 28.8701V28.968C52.0588 42.2776 40.9804 52.847 27.549 52.847C13.5294 52.847 2.15686 41.3968 2.15686 27.5C2.15686 13.6032 13.5294 2.15302 27.549 2.15302C38.8235 2.15302 48.5294 9.49288 51.7647 19.9644L52.451 23.3897C52.451 23.5854 52.7451 23.7811 52.9412 23.6833L54.2157 23.3897C54.5098 23.2918 54.6078 23.0961 54.6078 22.9004V22.8025L54.3137 21.5302L54.2157 20.8452C51.2745 8.70996 40.3922 0 27.549 0C12.3529 0 0 12.331 0 27.5C0 42.669 12.3529 55 27.549 55C42.451 55 54.6078 43.0605 55 28.2829V28.1851V26.8149ZM26.3726 35.1335C22.6471 34.5463 19.8039 31.3167 19.8039 27.5C19.8039 23.6833 22.6471 20.4537 26.3726 19.8665C26.4706 19.8665 26.5686 19.9644 26.5686 20.0623V21.1388L26.5854 35.1335H26.3726Z" fill="black"/>
</svg>
