<svg width="52" height="52" viewBox="0 0 52 52" fill="none" xmlns="http://www.w3.org/2000/svg">
<path d="M44.3847 7.61516C39.474 2.70451 32.9448 0 26 0C19.0551 0 12.5258 2.70451 7.61516 7.61516C2.70441 12.5259 0 19.0552 0 26C0 32.9448 2.70441 39.474 7.61516 44.3847C12.5259 49.2955 19.0551 52 26 52C32.9448 52 39.474 49.2955 44.3847 44.3847C49.2955 39.474 52 32.9448 52 26C52 19.0552 49.2955 12.526 44.3847 7.61516ZM26 48.9531C13.3436 48.9531 3.04688 38.6564 3.04688 26C3.04688 13.3436 13.3436 3.04688 26 3.04688C38.6564 3.04688 48.9531 13.3436 48.9531 26C48.9531 38.6564 38.6564 48.9531 26 48.9531Z" fill="black"/>
<path d="M38.4216 17.6575C37.8267 17.0628 36.8621 17.0628 36.2672 17.6576L22.8144 31.1105L15.7327 24.0289C15.1379 23.434 14.1732 23.434 13.5783 24.0289C12.9833 24.6237 12.9833 25.5883 13.5783 26.1833L21.7371 34.3421C22.0346 34.6396 22.4245 34.7883 22.8143 34.7883C23.2041 34.7883 23.5941 34.6395 23.8915 34.3421L38.4216 19.812C39.0165 19.2171 39.0165 18.2525 38.4216 17.6575Z" fill="black"/>
</svg>
